<svg preserveAspectRatio="none" width="100%" height="100%" overflow="visible" style="display: block;" viewBox="0 0 147.017 146.896" fill="none" xmlns="http://www.w3.org/2000/svg">
<path id="Vector" d="M142.26 48.4868C131.101 18.9006 103.536 -0.386202 71.703 0.00586781C26.9467 0.548733 -6.39425 41.4597 1.03999 85.4921C8.03692 126.87 50.0185 154.481 90.9747 145.041C133.771 135.179 157.823 89.7144 142.26 48.4717V48.4868ZM115.766 97.1486C116.112 96.7565 117.439 94.8113 117.575 94.7208C117.907 94.5097 118.962 95.1882 118.917 95.4597C117.424 97.6915 115.645 99.7423 113.489 101.356C111.634 102.743 107.683 105.412 105.813 102.879C104.878 101.612 105.436 99.5613 105.692 98.0986C107.396 88.704 110.126 79.4452 111.875 70.0506C111.92 69.8244 112.026 69.749 111.679 69.6434L93.5533 100.753L91.1707 102.894C90.5072 103.241 90.6882 101.069 90.7032 100.617C91.0199 90.981 90.9898 81.315 90.854 71.6792L90.4016 68.2863C86.0587 80.4253 80.3888 92.5041 69.7275 100.315C66.0481 103.015 60.8758 105.578 56.367 106.407C42.162 108.986 35.4365 99.4708 44.8764 87.9802C45.2534 87.5278 47.4097 85.0849 47.7415 85.1C47.9375 85.1 49.0836 85.4167 49.0836 85.5675C45.3137 89.2921 41.2874 95.3843 47.4248 99.1391C52.9138 102.502 62.7457 102.245 68.114 98.7018C75.2165 94.0271 82.0174 80.0634 85.9682 72.3728C86.5563 71.2268 88.381 67.9394 88.4564 66.8688C88.5921 65.0291 86.6921 64.456 85.154 64.5616C82.6055 70.0958 79.1975 74.9816 74.3419 78.7063C73.6633 79.234 71.7331 80.7571 71.0696 81.0134C70.4513 81.2547 69.9839 81.0587 69.7878 80.4102C68.8378 74.6046 68.5362 68.6029 67.6315 62.8124C67.6013 62.6616 67.541 62.1338 67.2696 62.2695L54.1503 80.9682C53.7884 81.315 53.0947 81.0436 53.0193 80.5912C52.9289 77.8316 52.7328 75.057 52.567 72.2974C52.0995 64.8934 51.4661 52.6789 48.5709 45.9835C44.62 36.8302 33.1595 39.7557 31.0484 48.6677C29.7515 54.1718 31.4404 59.9171 34.6524 64.4259C34.9389 64.833 36.5373 66.5973 36.5675 66.7481C36.6881 67.2156 35.8889 67.5926 35.5723 67.8339C28.319 62.36 23.4633 48.6376 31.4555 41.8367C36.1302 37.8556 44.816 37.0413 50.0487 40.2835C54.4821 43.0279 55.4321 48.0494 56.171 52.8598C57.1059 59.0123 57.2869 65.2703 57.694 71.4681L58.2067 71.1514L67.0132 58.6806C66.9378 54.1114 65.5354 48.5923 68.0386 44.4756C69.622 41.8819 74.5078 37.7048 77.7348 39.2731C81.0523 40.9017 77.9459 46.1343 76.7245 48.336C75.3522 50.7788 73.6331 53.0257 72.1855 55.4083L72.9395 62.7068C74.0554 62.6465 75.0657 61.983 76.1816 61.802C77.9761 61.5155 80.3737 61.6362 82.2285 61.6512C82.8468 61.6512 82.9674 62.0584 83.3896 61.3044C83.9777 60.2338 85.4254 54.9257 85.4555 53.7194C85.5008 52.1813 84.8222 49.8288 84.7166 48.155C84.6563 47.1899 84.5809 45.1542 84.7468 44.2645C84.9579 43.1335 86.873 40.9922 87.7175 40.1477C91.0802 36.8001 90.2509 40.389 90.1302 42.8621C89.9191 47.2201 89.4215 51.8043 88.3961 56.0567C87.9135 58.0623 87.0841 59.9623 86.5111 61.9377C91.0953 62.2997 95.7398 62.1489 96.1621 67.8942L96.0113 91.9461C96.343 91.7803 96.539 91.3882 96.7351 91.0866C101.772 83.2452 105.919 74.4086 110.88 66.4767L111.588 65.8283L118.932 62.2393C118.932 62.5108 118.947 62.7671 118.902 63.0386C118.51 64.9537 117.65 67.1553 117.168 69.1458C114.876 78.8118 113.413 88.8699 111.694 98.6565C112.312 101.054 114.936 98.0835 115.766 97.1637V97.1486ZM82.138 64.0489C82.4999 64.456 78.7904 70.4728 78.2475 71.2419C77.5991 72.1919 76.7999 73.3078 76.0308 74.1522C75.8649 74.3332 74.5982 75.6903 74.4474 75.5094L73.2411 64.1997L82.138 64.0489ZM74.5681 47.2201C74.2966 47.8534 72.2006 51.8344 71.7934 51.8344C71.3561 51.2312 71.4164 48.8034 71.4164 48.4566C71.3863 46.6621 71.4164 41.6859 73.6331 41.1732C76.9205 40.4192 75.1713 45.7724 74.5681 47.2201Z" fill="url(#paint0_linear_0_4)"/>
<defs>
<linearGradient id="paint0_linear_0_4" x1="73.5087" y1="54.6689" x2="73.5087" y2="198.856" gradientUnits="userSpaceOnUse">
<stop stop-color="white"/>
<stop offset="1" stop-color="white" stop-opacity="0"/>
</linearGradient>
</defs>
</svg>
