<svg preserveAspectRatio="none" width="100%" height="100%" overflow="visible" style="display: block;" viewBox="0 0 494.491 494.084" fill="none" xmlns="http://www.w3.org/2000/svg">
<path id="Vector" d="M478.49 163.084C440.958 63.5718 348.242 -1.29898 241.172 0.0197363C90.6349 1.84565 -21.507 139.449 3.49798 287.551C27.032 426.727 168.236 519.595 305.992 487.844C449.935 454.673 530.833 301.753 478.49 163.034V163.084ZM389.375 326.758C390.542 325.439 395.005 318.896 395.462 318.592C396.578 317.882 400.128 320.164 399.976 321.077C394.955 328.584 388.97 335.482 381.717 340.909C375.478 345.575 362.19 354.552 355.9 346.031C352.756 341.771 354.632 334.873 355.495 329.953C361.226 298.355 370.406 267.212 376.29 235.614C376.442 234.853 376.797 234.6 375.63 234.245L314.665 338.88L306.651 346.082C304.42 347.249 305.028 339.945 305.079 338.423C306.144 306.013 306.043 273.502 305.586 241.092L304.064 229.68C289.457 270.509 270.386 311.136 234.527 337.409C222.152 346.488 204.755 355.11 189.59 357.9C141.811 366.573 119.19 334.569 150.941 295.92C152.209 294.398 159.462 286.182 160.578 286.232C161.237 286.232 165.092 287.298 165.092 287.805C152.412 300.333 138.87 320.823 159.513 333.453C177.975 344.763 211.044 343.901 229.1 331.982C252.989 316.259 275.864 269.292 289.153 243.425C291.131 239.57 297.268 228.513 297.522 224.912C297.978 218.724 291.587 216.797 286.414 217.152C277.842 235.766 266.38 252.199 250.048 264.727C247.765 266.502 241.273 271.625 239.041 272.487C236.962 273.299 235.39 272.64 234.73 270.459C231.535 250.931 230.521 230.745 227.477 211.268C227.376 210.761 227.173 208.986 226.26 209.442L182.134 272.335C180.916 273.502 178.583 272.589 178.33 271.067C178.025 261.785 177.366 252.453 176.808 243.171C175.236 218.268 173.106 177.185 163.367 154.665C150.079 123.878 111.532 133.718 104.431 163.693C100.069 182.206 105.749 201.53 116.553 216.695C117.516 218.065 122.893 223.999 122.994 224.506C123.4 226.079 120.712 227.347 119.647 228.158C95.2504 209.747 78.9186 163.592 105.8 140.717C121.523 127.327 150.738 124.588 168.338 135.493C183.25 144.724 186.445 161.614 188.93 177.793C192.075 198.487 192.683 219.536 194.053 240.382L195.777 239.317L225.398 197.371C225.144 182.003 220.427 163.439 228.847 149.593C234.172 140.869 250.606 126.82 261.46 132.095C272.618 137.572 262.17 155.172 258.061 162.577C253.446 170.794 247.664 178.351 242.795 186.365L245.331 210.913C249.084 210.71 252.482 208.479 256.236 207.87C262.271 206.906 270.336 207.312 276.574 207.363C278.654 207.363 279.06 208.732 280.48 206.196C282.458 202.595 287.327 184.742 287.428 180.684C287.581 175.511 285.298 167.598 284.943 161.969C284.74 158.722 284.487 151.875 285.044 148.883C285.755 145.079 292.196 137.877 295.036 135.036C306.347 123.776 303.557 135.848 303.152 144.166C302.441 158.824 300.768 174.243 297.319 188.546C295.696 195.292 292.906 201.682 290.979 208.327C306.398 209.544 322.019 209.037 323.44 228.361L322.932 309.259C324.048 308.701 324.708 307.383 325.367 306.368C342.307 279.994 356.255 250.272 372.942 223.593L375.326 221.412L400.027 209.341C400.027 210.254 400.077 211.116 399.925 212.029C398.606 218.471 395.715 225.876 394.092 232.571C386.383 265.082 381.463 298.912 375.681 331.83C377.761 339.894 386.586 329.902 389.375 326.808V326.758ZM276.27 215.427C277.487 216.797 265.01 237.034 263.184 239.621C261.003 242.816 258.315 246.569 255.728 249.41C255.17 250.018 250.91 254.583 250.403 253.975L246.345 215.935L276.27 215.427ZM250.809 158.824C249.896 160.954 242.845 174.344 241.476 174.344C240.005 172.315 240.208 164.15 240.208 162.983C240.107 156.947 240.208 140.21 247.664 138.485C258.721 135.949 252.837 153.955 250.809 158.824Z" fill="url(#paint0_linear_0_4)"/>
<defs>
<linearGradient id="paint0_linear_0_4" x1="247.245" y1="183.878" x2="247.245" y2="668.85" gradientUnits="userSpaceOnUse">
<stop stop-color="white"/>
<stop offset="1" stop-color="white"/>
</linearGradient>
</defs>
</svg>
