<svg width="495" height="495" viewBox="0 0 495 495" fill="none" xmlns="http://www.w3.org/2000/svg">
<path d="M478.983 163.252C441.412 63.6373 348.6 -1.30032 241.42 0.0197566C90.7283 1.84756 -21.5291 139.593 3.50158 287.847C27.0599 427.166 168.41 520.13 306.307 488.347C450.399 455.142 531.38 302.064 478.983 163.202V163.252ZM389.777 327.094C390.944 325.774 395.412 319.225 395.869 318.92C396.986 318.209 400.54 320.494 400.388 321.408C395.362 328.922 389.37 335.827 382.11 341.26C375.865 345.931 362.563 354.918 356.267 346.388C353.119 342.123 354.998 335.218 355.861 330.293C361.598 298.662 370.788 267.488 376.677 235.857C376.83 235.095 377.185 234.841 376.017 234.486L314.989 339.229L306.967 346.439C304.733 347.606 305.342 340.295 305.393 338.772C306.459 306.329 306.358 273.784 305.901 241.34L304.378 229.916C289.755 270.788 270.665 311.457 234.769 337.757C222.381 346.845 204.966 355.476 189.785 358.269C141.957 366.951 119.313 334.913 151.096 296.225C152.366 294.702 159.626 286.477 160.743 286.527C161.403 286.527 165.262 287.594 165.262 288.101C152.569 300.642 139.013 321.154 159.677 333.796C178.158 345.118 211.262 344.255 229.336 332.324C253.25 316.584 276.148 269.569 289.451 243.676C291.431 239.817 297.574 228.749 297.828 225.144C298.285 218.95 291.888 217.02 286.709 217.376C278.129 236.009 266.654 252.459 250.305 265C248.021 266.777 241.522 271.905 239.288 272.768C237.206 273.58 235.632 272.92 234.972 270.737C231.773 251.19 230.758 230.983 227.712 211.486C227.61 210.978 227.407 209.201 226.493 209.658L182.321 272.616C181.103 273.784 178.767 272.87 178.513 271.346C178.209 262.055 177.549 252.713 176.99 243.422C175.416 218.493 173.284 177.367 163.536 154.824C150.233 124.006 111.646 133.855 104.538 163.862C100.172 182.394 105.858 201.738 116.673 216.919C117.638 218.29 123.019 224.23 123.121 224.738C123.527 226.312 120.836 227.581 119.77 228.393C95.3485 209.963 78.9999 163.76 105.909 140.862C121.649 127.458 150.893 124.716 168.511 135.632C183.438 144.873 186.637 161.78 189.125 177.976C192.273 198.691 192.882 219.762 194.253 240.629L195.979 239.563L225.63 197.574C225.376 182.19 220.654 163.608 229.083 149.747C234.414 141.014 250.864 126.95 261.729 132.231C272.899 137.714 262.44 155.332 258.327 162.745C253.707 170.97 247.919 178.535 243.045 186.557L245.584 211.131C249.341 210.928 252.742 208.694 256.5 208.084C262.541 207.12 270.614 207.526 276.859 207.577C278.941 207.577 279.347 208.947 280.769 206.409C282.749 202.804 287.623 184.932 287.724 180.87C287.877 175.692 285.592 167.771 285.237 162.135C285.034 158.886 284.78 152.032 285.338 149.036C286.049 145.228 292.497 138.019 295.34 135.175C306.663 123.904 303.87 135.988 303.464 144.314C302.753 158.988 301.078 174.422 297.625 188.74C296 195.493 293.208 201.89 291.279 208.541C306.713 209.76 322.351 209.252 323.773 228.596L323.265 309.578C324.382 309.019 325.042 307.699 325.702 306.684C342.66 280.282 356.622 250.53 373.326 223.824L375.713 221.64L400.439 209.557C400.439 210.471 400.49 211.334 400.337 212.248C399.017 218.696 396.123 226.108 394.498 232.81C386.781 265.355 381.856 299.22 376.068 332.172C378.15 340.244 386.984 330.242 389.777 327.145V327.094ZM276.555 215.649C277.773 217.02 265.283 237.278 263.455 239.868C261.272 243.066 258.581 246.823 255.992 249.667C255.433 250.276 251.168 254.845 250.661 254.236L246.599 216.157L276.555 215.649ZM251.067 158.988C250.153 161.12 243.096 174.524 241.725 174.524C240.252 172.493 240.456 164.319 240.456 163.151C240.354 157.109 240.456 140.354 247.919 138.628C258.987 136.089 253.098 154.113 251.067 158.988Z" fill="url(#paint0_linear_18_247)"/>
<defs>
<linearGradient id="paint0_linear_18_247" x1="247.5" y1="184.067" x2="247.5" y2="669.539" gradientUnits="userSpaceOnUse">
<stop stop-color="white"/>
<stop offset="1" stop-color="white"/>
</linearGradient>
</defs>
</svg>
